<svg xmlns="http://www.w3.org/2000/svg" xml:space="preserve" width="254.4" height="232.5" style="shape-rendering:geometricPrecision;text-rendering:geometricPrecision;image-rendering:optimizeQuality;fill-rule:evenodd;clip-rule:evenodd" viewBox="0 0 6730.1 6150.1"><defs><style>.fil0{fill:#fff}</style></defs>
<g id="_0"><path fill="#ffffff" d="M4168 3923a3076 3076 0 0 0-1337-1648 1200 1200 0 1 1 1732-1000c11 822 351 1605 944 2175-283 5-559 89-796 243-172 96-355 173-543 230zM2771 4284c716 141 1459 22 2096-334a1200 1200 0 1 1 0 2000 3076 3076 0 0 0-2356-270c137-248 202-528 187-811 3-197 28-393 73-585zM3157 2894a3076 3076 0 0 0-759 1982A1200 1200 0 1 1 666 3876a3076 3076 0 0 0 1412-1906c145 243 356 440 608 568 169 101 327 221 471 356z"/></g>
</svg>